{"title":"The Rocky Horror Picture Show [1975] (Uncut) x264 ","uid":12113369,"size":726017669,"categoryP":"video","categoryS":"movies","magnet":"?xt=urn:btih:6b174191c6fcfa8c6b0c9814bedf99d3b81791f4&amp;dn=The+Rocky+Horror+Picture+Show+%5B1975%5D+%28Uncut%29+x264+&amp;tr=udp%3A%2F%2Ftracker.openbittorrent.com%3A80&amp;tr=udp%3A%2F%2Fopen.demonii.com%3A1337&amp;tr=udp%3A%2F%2Ftracker.coppersurfer.tk%3A6969&amp;tr=udp%3A%2F%2Fexodus.desync.com%3A6969","seeders":0,"leechers":1,"uploader":null,"files":1,"time":1436628183,"description":"Format                      : MPEG-4\nFormat profile              : Base Media / Version 2\nCodec ID                    : mp42\nFile size                   : 692 MiB\nDuration                    : 1h 40mn\nOverall bit rate mode       : Variable\nOverall bit rate            : 967 Kbps\n\nVideo\nID                          : 1\nFormat                      : AVC\nFormat/Info                 : Advanced Video Codec\nFormat profile              : High@L3\nFormat settings, CABAC      : Yes\nFormat settings, ReFrames   : 4 frames\nCodec ID                    : avc1\nCodec ID/Info               : Advanced Video Coding\nDuration                    : 1h 40mn\nBit rate                    : 800 Kbps\nWidth                       : 720 pixels\nHeight                      : 480 pixels\nDisplay aspect ratio        : 16:9\nOriginal display aspect rat : 16:9\nFrame rate mode             : Variable\nFrame rate                  : 23.976 fps\nMinimum frame rate          : 19.149 fps\nMaximum frame rate          : 29.970 fps\nColor space                 : YUV\nChroma subsampling          : 4:2:0\nBit depth                   : 8 bits\nScan type                   : Progressive\nBits/(Pixel*Frame)          : 0.097\nStream size                 : 572 MiB (83%)\nWriting library             : x264 core 142 r2479 dd79a61\nEncoding settings           : cabac=1 / ref=3 / deblock=1:0:0 / analyse=0x3:0x113 / me=hex / subme=7 / psy=1 / psy_rd=1.00:0.00 / mixed_ref=1 / me_range=16 / chroma_me=1 / trellis=1 / 8x8dct=1 / cqm=0 / deadzone=21,11 / fast_pskip=1 / chroma_qp_offset=-2 / threads=6 / lookahead_threads=1 / sliced_threads=0 / nr=0 / decimate=1 / interlaced=0 / bluray_compat=0 / constrained_intra=0 / bframes=3 / b_pyramid=2 / b_adapt=1 / b_bias=0 / direct=1 / weightb=1 / open_gop=0 / weightp=2 / keyint=240 / keyint_min=24 / scenecut=40 / intra_refresh=0 / rc_lookahead=40 / rc=2pass / mbtree=1 / bitrate=800 / ratetol=1.0 / qcomp=0.60 / qpmin=0 / qpmax=69 / qpstep=4 / cplxblur=20.0 / qblur=0.5 / ip_ratio=1.40 / aq=1:1.00\nColor range                 : Limited\nColor primaries             : BT.601 NTSC\nTransfer characteristics    : BT.709\nMatrix coefficients         : BT.601\n\nAudio\nID                          : 2\nFormat                      : AAC\nFormat/Info                 : Advanced Audio Codec\nFormat profile              : LC\nCodec ID                    : 40\nDuration                    : 1h 40mn\nBit rate mode               : Variable\nBit rate                    : 160 Kbps\nChannel(s)                  : 2 channels\nChannel(s)_Original         : 6 channels\nChannel positions           : Front: L C R, Side: L R, LFE\nSampling rate               : 48.0 KHz\nCompression mode            : Lossy\nStream size                 : 115 MiB (17%)\nTitle                       : Surround / Surround\nLanguage                    : English\n\nText\nID                          : 3\nFormat                      : Timed Text\nMuxing mode                 : sbtl\nCodec ID                    : tx3g\nDuration                    : 1h 38mn\nBit rate mode               : Variable\nBit rate                    : 63 bps\nStream size                 : 45.2 KiB (0%)\nLanguage                    : English\n\nMenu\nID                          : 4\nCodec ID                    : text\nDuration                    : 1h 40mn\nLanguage                    : English\n00:00:00.000                : Chapter 1\n00:04:45.902                : Chapter 2\n00:07:30.200                : Chapter 3\n00:10:18.701                : Chapter 4\n00:13:53.282                : Chapter 5\n00:16:57.934                : Chapter 6\n00:19:26.615                : Chapter 7\n00:23:51.680                : Chapter 8\n00:28:56.184                : Chapter 9\n00:33:37.601                : Chapter 10\n00:36:31.441                : Chapter 11\n00:38:34.398                : Chapter 12\n00:39:43.300                : Chapter 13\n00:41:55.265                : Chapter 14\n00:45:14.297                : Chapter 15\n00:45:59.876                : Chapter 16\n00:47:27.630                : Chapter 17\n00:48:04.867                : Chapter 18\n00:49:19.942                : Chapter 19\n00:50:49.499                : Chapter 20\n00:52:30.266                : Chapter 21\n00:54:14.070                : Chapter 22\n00:56:40.015                : Chapter 23\n00:59:08.330                : Chapter 24\n01:03:32.928                : Chapter 25\n01:06:56.298                : Chapter 26\n01:09:53.808                : Chapter 27\n01:12:14.983                : Chapter 28\n01:16:32.206                : Chapter 29\n01:19:19.073                : Chapter 30\n01:23:19.613                : Chapter 31\n01:25:09.723                : Chapter 32\n01:28:41.135                : Chapter 33\n01:31:49.957                : Chapter 34\n01:34:31.234                : Chapter 35\n01:37:02.736                : Chapter 36\nBit rate mode               : VBR","torrent":{"xt":"urn:btih:6b174191c6fcfa8c6b0c9814bedf99d3b81791f4","amp;dn":"The+Rocky+Horror+Picture+Show+%5B1975%5D+%28Uncut%29+x264+","amp;tr":["udp%3A%2F%2Ftracker.openbittorrent.com%3A80","udp%3A%2F%2Fopen.demonii.com%3A1337","udp%3A%2F%2Ftracker.coppersurfer.tk%3A6969","udp%3A%2F%2Fexodus.desync.com%3A6969"],"infoHash":"6b174191c6fcfa8c6b0c9814bedf99d3b81791f4","infoHashBuffer":{"type":"Buffer","data":[107,23,65,145,198,252,250,140,107,12,152,20,190,223,153,211,184,23,145,244]},"announce":[],"urlList":[]}}